<svg width="70" height="70" viewBox="0 0 70 70" fill="none" xmlns="http://www.w3.org/2000/svg">
<path d="M34.3217 45.7171L38.3101 41.7287L33.752 37.1705H45.7171V31.4729H33.752L38.3101 26.9147L34.3217 22.9264L22.9264 34.3217L34.3217 45.7171ZM34.3217 62.8101C30.3809 62.8101 26.6774 62.0618 23.2113 60.5652C19.7452 59.0705 16.7302 57.0412 14.1662 54.4772C11.6023 51.9133 9.57295 48.8983 8.07826 45.4322C6.58167 41.9661 5.83337 38.2626 5.83337 34.3217C5.83337 30.3808 6.58167 26.6773 8.07826 23.2112C9.57295 19.7452 11.6023 16.7301 14.1662 14.1662C16.7302 11.6022 19.7452 9.57196 23.2113 8.07537C26.6774 6.58068 30.3809 5.83333 34.3217 5.83333C38.2626 5.83333 41.9661 6.58068 45.4322 8.07537C48.8983 9.57196 51.9133 11.6022 54.4773 14.1662C57.0412 16.7301 59.0705 19.7452 60.5652 23.2112C62.0618 26.6773 62.8101 30.3808 62.8101 34.3217C62.8101 38.2626 62.0618 41.9661 60.5652 45.4322C59.0705 48.8983 57.0412 51.9133 54.4773 54.4772C51.9133 57.0412 48.8983 59.0705 45.4322 60.5652C41.9661 62.0618 38.2626 62.8101 34.3217 62.8101ZM34.3217 57.1124C40.6842 57.1124 46.0732 54.9046 50.4889 50.4889C54.9046 46.0732 57.1124 40.6841 57.1124 34.3217C57.1124 27.9593 54.9046 22.5703 50.4889 18.1546C46.0732 13.7389 40.6842 11.531 34.3217 11.531C27.9593 11.531 22.5703 13.7389 18.1546 18.1546C13.7389 22.5703 11.531 27.9593 11.531 34.3217C11.531 40.6841 13.7389 46.0732 18.1546 50.4889C22.5703 54.9046 27.9593 57.1124 34.3217 57.1124Z" fill="#676767"/>
</svg>
