<svg width="65" height="65" viewBox="0 0 65 65" fill="none" xmlns="http://www.w3.org/2000/svg">
<circle cx="32.5" cy="32.5" r="30" stroke="#676767" stroke-width="5"/>
<path d="M21.9505 18.6448L32.0986 28.9566L42.1941 18.6983C42.4171 18.4571 42.6857 18.2641 42.9839 18.131C43.2821 17.9979 43.6036 17.9273 43.9293 17.9236C44.6265 17.9236 45.2952 18.205 45.7883 18.706C46.2813 19.207 46.5583 19.8865 46.5583 20.595C46.5644 20.9225 46.5046 21.2479 46.3826 21.5511C46.2605 21.8543 46.0788 22.1289 45.8485 22.3582L35.6215 32.6165L45.8485 43.0084C46.2818 43.4392 46.5359 44.0225 46.5583 44.638C46.5583 45.3465 46.2813 46.026 45.7883 46.527C45.2952 47.028 44.6265 47.3095 43.9293 47.3095C43.5942 47.3236 43.2599 47.2668 42.9476 47.1426C42.6353 47.0184 42.3519 46.8296 42.1152 46.5882L32.0986 36.2764L21.9768 46.5615C21.7546 46.7946 21.4893 46.9807 21.196 47.1091C20.9027 47.2375 20.5872 47.3056 20.2679 47.3095C19.5706 47.3095 18.9019 47.028 18.4089 46.527C17.9158 46.026 17.6389 45.3465 17.6389 44.638C17.6327 44.3105 17.6925 43.9851 17.8146 43.6819C17.9367 43.3788 18.1184 43.1041 18.3487 42.8749L28.5757 32.6165L18.3487 22.2246C17.9154 21.7938 17.6613 21.2105 17.6389 20.595C17.6389 19.8865 17.9158 19.207 18.4089 18.706C18.9019 18.205 19.5706 17.9236 20.2679 17.9236C20.8989 17.9316 21.5035 18.1907 21.9505 18.6448Z" fill="#676767"/>
</svg>
